# xmcd
#
# Track frame offsets:
#	151
#	20722
#	33543
#	51616
#	83229
#	111310
#	130847
#	146138
#	168257
#
# Disc length: 2618 seconds
#
# Revision: 0
# Processed by: cddbd v1.4b42PL0 Copyright (c) Steve Scherf et al.
# Submitted via: dBpowerAMP V4.0
#
DISCID=830a3809
DTITLE=Cafe Blue - A Good Night For The Blues
DYEAR=1900
DGENRE=Blues
TTITLE0=The Dangerous Kind
TTITLE1=Shoebox Mama
TTITLE2=You Can't Fool Me
TTITLE3=A Fool For You
TTITLE4=A Good Night For The Blues
TTITLE5=Don't You Play No Rhumba
TTITLE6=Greenbacks
TTITLE7=A Good Fool Is Hard To Find
TTITLE8=Congo Square
EXTD="Cafe Blue" is from Spokane, Washington
EXTT0=
EXTT1=
EXTT2=
EXTT3=
EXTT4=
EXTT5=
EXTT6=
EXTT7=
EXTT8=
PLAYORDER=
